<?xml version="1.0" encoding="utf-8"?>
<!-- Generator: Adobe Illustrator 27.3.0, SVG Export Plug-In . SVG Version: 6.00 Build 0)  -->
<svg version="1.1" id="Layer_1" xmlns="http://www.w3.org/2000/svg" xmlns:xlink="http://www.w3.org/1999/xlink" x="0px" y="0px"
	 viewBox="0 0 200 34" style="enable-background:new 0 0 200 34;" xml:space="preserve">
<style type="text/css">
	.st0{fill:#FFFFFF;}
</style>
<path class="st0" d="M166,17.29l1.8,1.75c-0.08-0.07,3.48-3.94,7.31-0.78c0.87-1.13,2.04-2.56,3.56-4.27
	c-1.86,0.6-6.39-1.41-6.39-1.41L166,17.29z"/>
<path class="st0" d="M172.95,21.35c0,0-0.2,0.89,0.44,2.17l-2.58,3.52l2.8-1.79l-3.54,4.42l4.48-3.27l-1.85,2.53l3.74-2.39
	c1.25,0.61,2.12,0.41,2.12,0.41s1.02-0.58,2.93-2.02c3.34,3.82-0.67,7.38-0.75,7.3l1.79,1.79l4.83-6.21c0,0-2.35-5.11-1.29-6.66
	c1.45-1.29,3.11-2.84,4.95-4.67C197.67,9.85,200,0,200,0s-9.89,2.32-16.52,8.93c-1.9,1.89-3.48,3.58-4.8,5.06
	c-1.52,1.71-2.69,3.14-3.56,4.27C173.57,20.27,172.95,21.35,172.95,21.35z M186.69,9.45c1.05-1.05,2.76-1.05,3.82,0s1.05,2.75,0,3.8
	s-2.76,1.05-3.82,0c-0.51-0.5-0.79-1.19-0.79-1.9C185.9,10.64,186.18,9.96,186.69,9.45L186.69,9.45z M176.88,18.98l-0.74-0.23
	l0.63-0.44l-0.01-0.77l0.61,0.46l0.73-0.25l-0.25,0.73l0.46,0.61l-0.77-0.01l-0.44,0.63L176.88,18.98z M181.04,21.82l0.62,0.46
	l0.73-0.25l-0.25,0.73l0.46,0.61l-0.77-0.01l-0.45,0.63l-0.23-0.73l-0.74-0.23l0.63-0.44L181.04,21.82z M180.11,22.35l-1.16-0.01
	l-0.66,0.94l-0.34-1.1l-1.1-0.34l0.94-0.66l-0.01-1.15l0.92,0.68l1.09-0.37l-0.37,1.09L180.11,22.35z"/>
<path class="st0" d="M16.69,19.6c1.02-1.34,1.53-2.96,1.53-4.84c0-2.38-0.78-4.28-2.33-5.7c-1.55-1.41-3.64-2.12-6.26-2.12H0v26.73
	h2.55V22.72h6.87h0.39L16,33.67h2.98l-6.52-11.36C14.26,21.84,15.67,20.94,16.69,19.6z M9.43,20.46H2.55V9.19h6.76
	c1.96,0,3.5,0.5,4.62,1.5c1.12,1,1.68,2.38,1.68,4.13c0,1.78-0.54,3.16-1.63,4.15C12.89,19.96,11.37,20.46,9.43,20.46z"/>
<path class="st0" d="M29.02,13.38c-2.81,0-5.03,0.92-6.66,2.76c-1.63,1.84-2.45,4.35-2.45,7.54c0,3.19,0.82,5.7,2.45,7.55
	C24,33.08,26.22,34,29.02,34c2.81,0,5.03-0.92,6.67-2.77c1.64-1.85,2.46-4.36,2.46-7.55c0-3.19-0.82-5.7-2.46-7.54
	C34.05,14.3,31.83,13.38,29.02,13.38z M33.86,29.64c-1.17,1.44-2.78,2.16-4.84,2.16c-2.06,0-3.68-0.72-4.84-2.16
	c-1.17-1.44-1.75-3.42-1.75-5.96c0-2.53,0.58-4.52,1.75-5.96c1.17-1.44,2.78-2.16,4.84-2.16c2.06,0,3.68,0.72,4.84,2.16
	c1.17,1.44,1.75,3.42,1.75,5.96C35.62,26.21,35.03,28.2,33.86,29.64z"/>
<path class="st0" d="M50.13,15.57c1.49,0,2.74,0.37,3.75,1.12c1.01,0.75,1.68,1.71,2,2.9h2.48c-0.31-1.8-1.2-3.29-2.67-4.46
	s-3.33-1.75-5.56-1.75c-2.76,0-4.95,0.93-6.58,2.78c-1.63,1.85-2.45,4.34-2.45,7.47c0,3.17,0.82,5.7,2.45,7.57
	c1.63,1.87,3.83,2.81,6.6,2.81c2.25,0,4.1-0.56,5.55-1.67s2.33-2.58,2.65-4.41h-2.48c-0.31,1.22-0.97,2.17-1.98,2.85
	c-1.01,0.68-2.26,1.02-3.75,1.02c-1.99,0-3.57-0.74-4.75-2.21c-1.18-1.48-1.77-3.46-1.77-5.96c0-2.46,0.59-4.42,1.76-5.87
	C46.54,16.29,48.13,15.57,50.13,15.57z"/>
<polygon class="st0" points="76.73,13.71 73.67,13.71 63.88,23.05 63.65,23.05 63.65,5.77 61.21,5.77 61.21,33.67 63.65,33.67 
	63.65,25.92 65.93,23.83 74.01,33.67 77.14,33.67 67.77,22.27 "/>
<path class="st0" d="M87.09,13.38c-2.73,0-4.91,0.94-6.53,2.81s-2.43,4.38-2.43,7.51c0,3.15,0.81,5.65,2.42,7.51
	c1.61,1.86,3.8,2.79,6.56,2.79c2.1,0,3.88-0.47,5.35-1.41c1.47-0.94,2.45-2.22,2.94-3.85h-2.48c-0.43,0.99-1.15,1.75-2.14,2.29
	c-0.99,0.54-2.2,0.81-3.61,0.81c-1.94,0-3.49-0.67-4.67-2s-1.79-3.13-1.85-5.39v-0.11h15.07v-1.07c0-3.05-0.77-5.46-2.31-7.23
	C91.87,14.26,89.76,13.38,87.09,13.38z M80.67,22.33c0.11-2.05,0.75-3.7,1.92-4.94c1.17-1.24,2.66-1.86,4.49-1.86
	c1.81,0,3.28,0.62,4.39,1.85c1.11,1.24,1.68,2.88,1.7,4.95H80.67z"/>
<path class="st0" d="M102.27,8.53h-2.44v5.19h-3.28v2.06h3.28V28.7c0,1.82,0.41,3.12,1.24,3.9c0.83,0.78,2.2,1.18,4.13,1.18
	c0.65,0,1.22-0.04,1.71-0.13v-2.08c-0.41,0.04-0.89,0.06-1.45,0.06c-1.13,0-1.94-0.27-2.44-0.82c-0.5-0.55-0.75-1.44-0.75-2.66
	V15.77h4.64v-2.06h-4.64V8.53z"/>
<polygon class="st0" points="110.9,33.67 115.07,33.67 115.07,22.59 126.62,22.59 126.62,18.92 115.07,18.92 115.07,10.71 
	127.68,10.71 127.68,6.93 110.9,6.93 "/>
<rect x="130.25" y="13.49" class="st0" width="3.99" height="20.18"/>
<path class="st0" d="M132.25,5.08c-0.75,0-1.36,0.23-1.85,0.7c-0.49,0.47-0.74,1.05-0.74,1.74c0,0.69,0.25,1.27,0.74,1.73
	c0.49,0.46,1.11,0.69,1.85,0.69c0.75,0,1.36-0.23,1.85-0.69c0.49-0.46,0.74-1.04,0.74-1.73c0-0.69-0.25-1.27-0.74-1.74
	C133.61,5.31,132.99,5.08,132.25,5.08z"/>
<path class="st0" d="M154.17,15.05c-1.21-1.3-2.95-1.95-5.21-1.95c-2.98,0-5,1.2-6.05,3.59h-0.3v-3.21h-3.86v20.18h4v-11.8
	c0-1.57,0.44-2.81,1.31-3.73c0.88-0.92,2.05-1.38,3.53-1.38c2.92,0,4.38,1.62,4.38,4.85v12.06h4V20.61
	C155.98,18.2,155.38,16.34,154.17,15.05z"/>
</svg>
